<?xml version="1.0" encoding="UTF-8" standalone="no"?>
<svg
   xmlns:dc="http://purl.org/dc/elements/1.1/"
   xmlns:cc="http://creativecommons.org/ns#"
   xmlns:rdf="http://www.w3.org/1999/02/22-rdf-syntax-ns#"
   xmlns:svg="http://www.w3.org/2000/svg"
   xmlns="http://www.w3.org/2000/svg"
   xmlns:sodipodi="http://sodipodi.sourceforge.net/DTD/sodipodi-0.dtd"
   xmlns:inkscape="http://www.inkscape.org/namespaces/inkscape"
   viewBox="0 0 700 700"
   aria-hidden="true"
   version="1.1"
   id="svg14"
   sodipodi:docname="burger-king-logo.svg"
   width="700"
   height="700"
   inkscape:export-filename="C:\Users\suitedoalex\sites\burger-king-logo-0.png"
   inkscape:export-xdpi="561.73712"
   inkscape:export-ydpi="561.73712"
   inkscape:version="0.92.4 (5da689c313, 2019-01-14)">
  <metadata
     id="metadata20">
    <rdf:RDF>
      <cc:Work
         rdf:about="">
        <dc:format>image/svg+xml</dc:format>
        <dc:type
           rdf:resource="http://purl.org/dc/dcmitype/StillImage" />
        <dc:title></dc:title>
      </cc:Work>
    </rdf:RDF>
  </metadata>
  <defs
     id="defs18" />
  <sodipodi:namedview
     pagecolor="#ffffff"
     bordercolor="#666666"
     borderopacity="1"
     objecttolerance="10"
     gridtolerance="10"
     guidetolerance="10"
     inkscape:pageopacity="0"
     inkscape:pageshadow="2"
     inkscape:window-width="1600"
     inkscape:window-height="837"
     id="namedview16"
     showgrid="false"
     inkscape:zoom="0.46354778"
     inkscape:cx="97.2186"
     inkscape:cy="217.47593"
     inkscape:window-x="-8"
     inkscape:window-y="-8"
     inkscape:window-maximized="1"
     inkscape:current-layer="svg14" />
  <g
     id="g12"
     style="fill:none;fill-rule:nonzero"
     transform="matrix(5.614466,0,0,5.614466,99.344973,99.333744)"
     inkscape:export-filename="C:\Users\suitedoalex\sites\burger-king-logo-4.png"
     inkscape:export-xdpi="76.599304"
     inkscape:export-ydpi="76.599304">
    <path
       d="M 0,44.647 C 0,19.989 19.985,0 44.645,0 69.305,0 89.289,19.989 89.289,44.647 89.289,69.302 69.305,89.293 44.644,89.293 19.985,89.293 0,69.303 0,44.647"
       id="path2"
       inkscape:connector-curvature="0"
       style="fill:#fefefe" />
    <title
       id="title4">Burger King Logo</title>
    <path
       d="m 70.624,53.952 c 0.513,-0.121 0.882,-0.112 1.145,0.153 0.306,0.324 0.245,0.862 0.162,1.2 -0.394,1.64 -3.863,13.268 -20.302,17.244 -10.764,2.598 -20.677,-0.954 -22.914,-3.756 0,0 -0.52,-0.52 -0.29,-1.048 0.15,-0.342 0.364,-0.414 0.835,-0.617 10.95,-4.691 29.945,-10.491 41.364,-13.176 z m -2.595,4.777 c 0.752,-1.593 -1.417,-2.403 -2.027,-0.538 -1.523,3.913 -4.653,8.508 -10.16,11.637 4.893,-1.923 9.59,-5.595 12.187,-11.099 z M 31.583,11.489 C 37.084,8.522 44.941,7.354 50.706,7.971 61.15,9.084 64.332,13.992 64.512,14.284 l 0.016,0.023 c 0.053,0.067 0.362,0.489 0.19,0.918 -0.137,0.326 -0.452,0.44 -0.807,0.502 -4.966,0.843 -12.701,2.362 -22.122,4.862 -6.615,1.755 -17.105,5.233 -20.621,6.421 -0.417,0.14 -0.747,0.144 -0.975,-0.141 -0.222,-0.282 -0.13,-0.94 -0.074,-1.16 0,0 1.496,-8.848 11.464,-14.22 z m 2.216,-0.1 c -6.041,2.666 -10.123,9.015 -10.348,11.702 -0.085,1.069 1.328,1.222 1.465,0.085 1.276,-4.898 5.175,-9.524 8.883,-11.787 z m 25.108,2.178 c 0.05,-2.437 -6.903,-5.265 -13.273,-4.752 6.491,0.432 10.384,2.931 10.402,4.67 0.016,1.103 -0.938,2.075 -2.214,2.458 3.258,-0.8 5.051,-0.92 5.085,-2.376 z"
       id="path6"
       inkscape:connector-curvature="0"
       style="fill:#faae17" />
    <path
       d="M 75.47,56.933 C 69.833,69.598 59.02,78.409 44.847,78.609 34.522,78.751 25.411,75.219 18.832,69.053 l -3.978,1.697 0.01,-6.16 C 10.528,58.746 8.014,51.35 8.014,42.947 8.014,21.425 24.494,4.46 47.482,4.46 c 3.753,0 7.146,0.585 9.704,1.164 C 53.244,4.364 49.33,3.68 44.97,3.68 20.303,3.68 3.698,23.684 3.698,44.317 c 0,22.484 17.638,41.314 40.788,41.314 22.11,0 34.036,-15.59 37.854,-24.961 l -6.872,-3.737 z"
       id="path8"
       inkscape:connector-curvature="0"
       style="fill:#0054a5" />
    <path
       d="m 27.065,45.06 c 0.62,-0.945 2.07,-1.802 3.765,-1.035 1.539,0.698 1.962,2.376 1.118,3.728 -0.63,1.02 -4.502,7.124 -4.502,7.124 l 4.396,4.43 c 0.871,0.96 1.107,3.1 -0.448,4.354 -1.719,1.388 -3.665,0.826 -4.727,-0.277 l -4.828,-5.123 -0.01,6.394 c 0,0 0.023,1.247 -0.45,1.985 -0.512,0.81 -1.363,1.046 -1.363,1.046 l -4.318,1.814 0.018,-20.18 6.136,-2.54 0.007,7.132 z m 12.92,-5.037 -0.008,15.215 v 1.887 c 0,2.38 -0.853,3.544 -3.119,4.397 -1.59,0.598 -3.298,1.185 -3.298,1.185 L 33.566,47.75 v -1.86 c 0,-2.95 1.12,-4.077 3.072,-4.784 a 70.832,70.832 0 0 1 3.348,-1.082 z m 19.261,-4.997 c 0,0 0.016,12.44 0.003,17.534 -0.027,1.523 -1.008,2.605 -2.187,2.947 -1.141,0.333 -2.394,0.248 -3.384,-0.78 l -6.132,-7.056 c 0,0 0.007,4.614 0.034,6.975 0.011,2.184 -0.763,3.442 -2.88,4.173 -0.23,0.077 -2.862,0.984 -2.862,0.984 l -0.002,-20.235 2.94,-0.888 c 0,0 1.992,-0.72 3.196,0.483 2.252,2.257 5.706,6.577 5.706,6.577 v -6.07 c 0,-2.543 1.16,-3.506 2.675,-3.936 a 50.596,50.596 0 0 1 2.802,-0.689 l 0.091,-0.02 z m 21.78,15.957 c 1.88,0 3.456,1.476 3.456,3.433 0,1.985 -1.577,3.46 -3.456,3.46 -1.896,0 -3.474,-1.475 -3.474,-3.46 0,-1.957 1.578,-3.433 3.474,-3.433 z m 0,0.51 c -1.622,0 -2.848,1.265 -2.848,2.923 0,1.685 1.226,2.95 2.848,2.95 1.591,0 2.83,-1.265 2.83,-2.95 0,-1.658 -1.239,-2.923 -2.83,-2.923 z m 0.077,0.925 c 1.015,0 1.59,0.313 1.59,1.201 0,0.745 -0.465,1.03 -1.07,1.083 l 1.084,1.777 h -0.832 l -0.997,-1.741 h -0.51 v 1.741 h -0.79 v -4.061 z m -0.054,0.628 h -0.682 v 1.07 h 0.722 c 0.457,0 0.8,-0.067 0.8,-0.562 0,-0.445 -0.455,-0.508 -0.84,-0.508 z M 69.565,32.094 c 2.368,-0.47 4.85,-0.333 6.76,0.438 2.587,1 1.781,5.263 -1.063,4.836 -0.848,-0.126 -2.285,-0.734 -4.837,-0.149 -2.257,0.518 -4.124,2.423 -4.183,5.724 0.032,3.076 1.319,4.817 4.151,4.374 2.01,-0.399 2.038,-1.256 2.038,-1.338 l 0.001,-0.005 -0.011,-1.636 c 0,0 -0.669,0.212 -1.11,0.281 -1.388,0.257 -2.029,-0.465 -2.047,-1.79 0.004,-0.765 0.005,-1.305 0.006,-1.63 v -0.378 l 8.585,-1.856 c 0,0 0.044,5.234 0,6.89 0,1.127 -0.264,2.65 -1.386,3.748 -1.231,1.213 -3.477,2.513 -6.719,2.887 -4.52,0.51 -9.551,-1.71 -9.57,-8.534 0.019,-8.589 6.226,-11.23 9.386,-11.862 z M 17.063,32.017 c 3.173,-1.154 5.034,0.236 5.034,2.353 0,1.413 -0.603,2.615 -1.92,3.672 1.296,0.212 2.399,1.274 2.424,2.745 0.047,2.822 -1.985,4.323 -4.633,5.42 L 12.545,48.512 12.53,33.817 c 0,0 3.417,-1.395 4.533,-1.8 z m 1.618,9.281 c -0.018,-1.114 -0.884,-1.719 -2.376,-0.97 l -0.004,3.576 c 0,0 0.483,-0.214 0.837,-0.378 0.875,-0.405 1.557,-1.137 1.543,-2.228 z M 31.018,27.11 c 1.031,-0.294 1.884,0.034 1.884,1.272 l 0.002,7.677 c -0.038,4.036 -1.915,5.613 -4.725,6.444 -3.19,0.94 -5.28,-0.572 -5.267,-3.607 0.014,-2.285 0.007,-7.606 0.005,-8.812 v -0.247 c 0,0 0.692,-0.276 1.846,-0.661 1.026,-0.34 1.893,0.031 1.893,1.276 l 0.011,7.476 c 0.005,0.91 0.41,1.485 1.271,1.27 1.12,-0.282 1.258,-1.423 1.27,-2.334 l 0.004,-9.137 c 0,0 0.974,-0.378 1.806,-0.617 z m 7.79,-2.369 c 2.81,-0.655 4.812,0.628 4.772,2.898 -0.014,2.162 -1.22,3.476 -2.302,4.374 l 2.378,2.286 c 0.736,0.711 0.78,1.993 -0.036,2.767 -0.49,0.46 -1.798,0.934 -2.82,-0.108 l -3.174,-3.276 -0.013,3.6 c -0.007,0.973 -0.67,1.675 -1.51,1.996 -0.698,0.241 -2.194,0.752 -2.194,0.752 l 0.01,-13.797 c 0,0 3.075,-1.071 4.888,-1.492 z M 18.352,35.693 c 0.009,-1.08 -0.876,-1.356 -2.075,-0.738 v 3.112 c 0.261,-0.106 0.461,-0.193 0.682,-0.301 0.81,-0.396 1.386,-1.125 1.393,-2.073 z M 51.855,21.246 c 2.378,-0.083 3.49,0.69 3.46,1.94 -0.029,1.167 -0.839,1.847 -2.256,1.617 -0.574,-0.072 -1.319,-0.175 -2.135,0.034 -1.64,0.42 -2.842,1.921 -2.887,4.475 0.022,1.946 0.75,2.966 2.063,3 0.94,0.024 1.843,-0.372 1.84,-0.975 l -0.008,-1.52 c 0,0 -0.36,0.082 -0.81,0.175 -0.718,0.148 -1.218,-0.31 -1.222,-1.02 l 0.004,-1.523 5.481,-1.246 v 5.21 c 0,0.788 -0.292,1.71 -0.992,2.33 -0.706,0.616 -1.719,1.277 -3.76,1.69 -3.618,0.652 -6.572,-1.349 -6.572,-5.878 0,-4.426 2.64,-8.131 7.794,-8.31 z m 12.379,-2.54 c 0,0 -0.007,0.76 -0.008,1.306 l -0.001,0.252 c 0,0.798 -0.286,1.383 -1.134,1.561 -1.093,0.23 -3.123,0.653 -3.123,0.653 v 2.052 l 3.904,-0.826 c 0,0 0.003,0.51 0.004,1.16 V 25.2 c 0,0.862 -0.396,1.271 -1.145,1.436 -0.598,0.132 -2.758,0.587 -2.758,0.587 l -0.012,2.59 4.401,-0.961 v 1.568 c 0,0.99 -0.506,1.562 -1.316,1.737 -2.412,0.524 -6.793,1.557 -6.793,1.557 l 0.03,-13.399 c 2.304,-0.526 6,-1.269 7.951,-1.608 z m 5.806,-0.989 c 2.768,-0.356 4.626,1.183 4.592,3.364 -0.018,1.919 -1.224,3.075 -2.25,3.768 l 2.385,2.685 c 0.68,0.756 0.648,2.052 -0.353,2.682 -0.985,0.625 -1.962,0.297 -2.529,-0.329 l -3.107,-3.645 c 0,0 0.007,2.241 0.002,3.222 -0.009,0.972 -0.571,1.683 -1.584,1.895 l -2.027,0.398 0.009,-13.228 c 0,0 3.86,-0.686 4.862,-0.812 z M 39.773,28.71 C 39.75,27.187 38.346,27.522 37.622,27.788 l -0.005,3.829 c 0.01,-0.002 2.178,-1.125 2.156,-2.907 z M 70.887,21.661 C 70.871,20.21 69.438,20.473 68.763,20.624 l 0.005,3.573 c 0.004,0 2.15,-0.817 2.12,-2.536 z"
       id="path10"
       inkscape:connector-curvature="0"
       style="fill:#ec1d24" />
  </g>
</svg>
